<?xml version="1.0" encoding="utf-8"?><svg xmlns="http://www.w3.org/2000/svg" xmlns:xlink="http://www.w3.org/1999/xlink"><symbol fill="none" viewBox="0 0 26 26" id="search"><path d="m24.437 21.719-6.675-6.675a.478.478 0 0 0-.676 0l-.684.683-1.027-1.027a8.196 8.196 0 0 0 2.085-5.47C17.46 4.692 13.768 1 9.23 1S1 4.693 1 9.231s3.692 8.23 8.23 8.23a8.196 8.196 0 0 0 5.469-2.085l1.027 1.028-.683.683a.478.478 0 0 0 0 .676l6.675 6.675c.375.375.867.562 1.36.562.492 0 .984-.187 1.359-.562a1.91 1.91 0 0 0 .563-1.36c0-.513-.2-.996-.563-1.359zM9.23 16.505c-4.01 0-7.274-3.263-7.274-7.274 0-4.01 3.263-7.274 7.274-7.274 4.01 0 7.274 3.263 7.274 7.274 0 4.01-3.263 7.274-7.274 7.274zm14.53 7.257a.967.967 0 0 1-1.366 0l-6.337-6.337 1.367-1.367 6.337 6.337a.96.96 0 0 1 .283.683c0 .259-.1.501-.283.684z" fill="#7DA57E" stroke="#7DA57E" stroke-width=".5"/></symbol></svg>