<?xml version="1.0" encoding="utf-8"?><svg xmlns="http://www.w3.org/2000/svg" xmlns:xlink="http://www.w3.org/1999/xlink"><symbol fill="none" viewBox="0 0 35 35" id="facebook"><path d="M29.531 0H5.47A5.469 5.469 0 0 0 0 5.469V29.53A5.469 5.469 0 0 0 5.469 35H29.53A5.469 5.469 0 0 0 35 29.531V5.47A5.469 5.469 0 0 0 29.531 0z" fill="#87B989"/><path d="M26.25 17.5c0-4.813-3.938-8.75-8.75-8.75-4.813 0-8.75 3.938-8.75 8.75 0 4.375 3.172 7.984 7.328 8.64v-6.124h-2.187V17.5h2.187v-1.969c0-2.187 1.313-3.39 3.281-3.39.985 0 1.97.218 1.97.218v2.188h-1.095c-1.093 0-1.422.656-1.422 1.312V17.5h2.407l-.438 2.516h-2.078v6.234a8.828 8.828 0 0 0 7.547-8.75z" fill="#fff"/></symbol><symbol fill="none" viewBox="0 0 35 35" id="instagram"><path d="M29.531 0H5.47A5.469 5.469 0 0 0 0 5.469V29.53A5.469 5.469 0 0 0 5.469 35H29.53A5.469 5.469 0 0 0 35 29.531V5.47A5.469 5.469 0 0 0 29.531 0z" fill="#87B989"/><path d="M17.5 10.063h3.719c.875 0 1.312.218 1.64.328.438.218.766.328 1.094.656.328.328.547.656.656 1.094.11.328.22.765.328 1.64v7.438c0 .875-.218 1.312-.328 1.64-.218.438-.328.766-.656 1.094-.328.328-.656.547-1.094.656-.328.11-.765.22-1.64.328H13.78c-.875 0-1.312-.218-1.64-.328-.438-.218-.766-.328-1.094-.656-.328-.328-.547-.656-.656-1.094-.11-.328-.22-.765-.329-1.64v-7.438c0-.875.22-1.312.329-1.64.218-.438.328-.766.656-1.094.328-.328.656-.547 1.094-.656.328-.11.765-.22 1.64-.329h3.72zm0-1.641h-3.719c-.984 0-1.64.219-2.187.437a4.776 4.776 0 0 0-1.64 1.094c-.548.547-.767.985-1.095 1.64-.218.548-.328 1.204-.437 2.188v7.438c0 .984.219 1.64.437 2.187a4.777 4.777 0 0 0 1.094 1.64c.547.548.985.767 1.64 1.095.548.218 1.204.328 2.188.437h7.438c.984 0 1.64-.219 2.187-.437a4.775 4.775 0 0 0 1.64-1.094c.548-.547.767-.985 1.095-1.64.218-.548.328-1.204.437-2.188v-7.438c0-.984-.219-1.64-.437-2.187a4.774 4.774 0 0 0-1.094-1.64c-.547-.548-.985-.767-1.64-1.095-.548-.218-1.204-.328-2.188-.437H17.5z" fill="#fff"/><path d="M17.5 12.797a4.668 4.668 0 0 0-4.703 4.703 4.668 4.668 0 0 0 4.703 4.703 4.668 4.668 0 0 0 4.703-4.703 4.668 4.668 0 0 0-4.703-4.703zm0 7.765a3.057 3.057 0 0 1-3.063-3.062 3.057 3.057 0 0 1 3.063-3.063 3.057 3.057 0 0 1 3.063 3.063c0 1.64-1.422 3.063-3.063 3.063zm4.813-6.781a1.094 1.094 0 1 0 0-2.187 1.094 1.094 0 0 0 0 2.187z" fill="#fff"/></symbol><symbol fill="none" viewBox="0 0 41 48" id="play"><path d="M39 20.536c2.667 1.54 2.667 5.388 0 6.928L6 46.517c-2.667 1.54-6-.385-6-3.464V4.947C0 1.868 3.333-.056 6 1.483l33 19.053z" fill="#6C936E"/></symbol><symbol fill="none" viewBox="0 0 26 26" id="search"><path d="m24.437 21.719-6.675-6.675a.478.478 0 0 0-.676 0l-.684.683-1.027-1.027a8.196 8.196 0 0 0 2.085-5.47C17.46 4.692 13.768 1 9.23 1S1 4.693 1 9.231s3.692 8.23 8.23 8.23a8.196 8.196 0 0 0 5.469-2.085l1.027 1.028-.683.683a.478.478 0 0 0 0 .676l6.675 6.675c.375.375.867.562 1.36.562.492 0 .984-.187 1.359-.562a1.91 1.91 0 0 0 .563-1.36c0-.513-.2-.996-.563-1.359zM9.23 16.505c-4.01 0-7.274-3.263-7.274-7.274 0-4.01 3.263-7.274 7.274-7.274 4.01 0 7.274 3.263 7.274 7.274 0 4.01-3.263 7.274-7.274 7.274zm14.53 7.257a.967.967 0 0 1-1.366 0l-6.337-6.337 1.367-1.367 6.337 6.337a.96.96 0 0 1 .283.683c0 .259-.1.501-.283.684z" fill="#7DA57E" stroke="#7DA57E" stroke-width=".5"/></symbol><symbol fill="none" viewBox="0 0 35 35" id="telegram"><path d="M29.531 0H5.47A5.469 5.469 0 0 0 0 5.469V29.53A5.469 5.469 0 0 0 5.469 35H29.53A5.469 5.469 0 0 0 35 29.531V5.47A5.469 5.469 0 0 0 29.531 0z" fill="#87B989"/><path d="M8.86 17.18c4.697-2.046 7.83-3.395 9.397-4.047 4.475-1.861 5.405-2.185 6.01-2.195.134-.003.432.03.625.187a.682.682 0 0 1 .23.437c.021.125.048.41.026.634-.242 2.548-1.291 8.731-1.825 11.585-.226 1.208-.67 1.613-1.101 1.652-.936.086-1.647-.618-2.553-1.212-1.418-.93-2.22-1.509-3.596-2.416-1.591-1.048-.56-1.625.347-2.566.237-.247 4.36-3.997 4.44-4.337.01-.043.02-.201-.075-.285-.094-.084-.233-.055-.334-.033-.142.033-2.408 1.53-6.797 4.493-.643.442-1.225.657-1.747.646-.576-.013-1.682-.326-2.505-.593-1.01-.328-1.811-.502-1.742-1.059.037-.29.436-.587 1.2-.89z" fill="#fff"/></symbol><symbol fill="none" viewBox="0 0 35 35" id="vk"><path d="M0 5.469A5.469 5.469 0 0 1 5.469 0H29.53A5.469 5.469 0 0 1 35 5.469V29.53A5.469 5.469 0 0 1 29.531 35H5.47A5.469 5.469 0 0 1 0 29.531V5.47z" fill="#87B989"/><path d="M5.25 17.01c0-5.545 0-8.314 1.715-10.045C8.705 5.25 11.473 5.25 17.01 5.25h.98c5.545 0 8.314 0 10.045 1.715 1.715 1.74 1.715 4.508 1.715 10.045v.98c0 5.545 0 8.314-1.715 10.045-1.74 1.715-4.508 1.715-10.045 1.715h-.98c-5.545 0-8.314 0-10.045-1.715C5.25 26.295 5.25 23.527 5.25 17.99v-.98z" fill="#87B989"/><path d="M18.285 22.898c-5.587 0-8.772-3.822-8.902-10.192h2.81c.089 4.672 2.147 6.648 3.78 7.056v-7.056h2.638v4.027c1.609-.172 3.308-2.01 3.88-4.035h2.629a7.781 7.781 0 0 1-3.577 5.088 8.06 8.06 0 0 1 4.19 5.112h-2.9c-.62-1.935-2.172-3.438-4.222-3.642v3.642h-.326z" fill="#fff"/></symbol></svg>