<svg width="11" height="13" viewBox="0 0 11 13" fill="none" xmlns="http://www.w3.org/2000/svg">
<path d="M4.8607 0.0126953C2.1761 0.0126953 0 2.15582 0 4.79896C0 5.91918 0.384342 6.78377 1.27046 8.09098C2.15585 9.39818 4.8607 12.9811 4.8607 12.9811C4.8607 12.9811 7.5656 9.399 8.44934 8.09098C9.3362 6.78448 9.71979 5.91918 9.71979 4.79896C9.7199 2.15582 7.54378 0.0126953 4.8607 0.0126953ZM4.8607 6.60857C3.84593 6.60857 3.02333 5.79842 3.02333 4.79904C3.02333 3.80109 3.84593 2.9895 4.8607 2.9895C5.87546 2.9895 6.69807 3.80107 6.69807 4.79904C6.69807 5.79842 5.87546 6.60857 4.8607 6.60857Z" fill="white"/>
</svg>
