<svg width="10" height="12" viewBox="0 0 10 12" fill="none" xmlns="http://www.w3.org/2000/svg">
<g id="noun-location-4679023 1">
<g id="Group">
<path id="Vector" d="M4.41882 0.0117188C1.97827 0.0117188 0 1.98999 0 4.42981C0 5.46386 0.349402 6.26194 1.15496 7.46859C1.95987 8.67525 4.41882 11.9826 4.41882 11.9826C4.41882 11.9826 6.87781 8.676 7.68121 7.46859C8.48745 6.2626 8.83618 5.46386 8.83618 4.42981C8.83627 1.98999 6.85798 0.0117188 4.41882 0.0117188V0.0117188ZM4.41882 6.10022C3.4963 6.10022 2.74848 5.35239 2.74848 4.42988C2.74848 3.5087 3.4963 2.75954 4.41882 2.75954C5.34133 2.75954 6.08915 3.50868 6.08915 4.42988C6.08915 5.35239 5.34133 6.10022 4.41882 6.10022Z" fill="white" fill-opacity="0.5"/>
</g>
</g>
</svg>
