<svg width="19" height="19" viewBox="0 0 19 19" fill="none" xmlns="http://www.w3.org/2000/svg">
<path d="M11.1947 9.5L18.8758 1.81942C19.0411 1.65389 19.0411 1.38568 18.8758 1.22015L17.7803 0.124097C17.7009 0.0448349 17.5928 0 17.4805 0C17.368 0 17.2601 0.0448349 17.1807 0.124097L9.49977 7.80488L1.81889 0.124097C1.65976 -0.0350273 1.37814 -0.0348271 1.21942 0.124097L0.124148 1.22015C-0.0413828 1.38568 -0.0413828 1.65389 0.124148 1.81942L7.80503 9.5L0.124148 17.1806C-0.0413828 17.3461 -0.0413828 17.6143 0.124148 17.7799L1.21962 18.8759C1.29908 18.9552 1.40696 19 1.51945 19C1.63194 19 1.73963 18.9552 1.81909 18.8759L9.49998 11.1951L17.1809 18.8759C17.2603 18.9552 17.3684 19 17.4807 19C17.593 19 17.7011 18.9552 17.7805 18.8759L18.876 17.7799C19.0413 17.6143 19.0413 17.3461 18.876 17.1806L11.1947 9.5Z" fill="white"/>
</svg>
