<svg width="66" height="79" viewBox="0 0 66 79" fill="none" xmlns="http://www.w3.org/2000/svg">
<path d="M29.1642 0.0771484C13.0566 0.0771484 0 13.1008 0 29.1629C0 35.9704 2.30606 41.2244 7.62275 49.1682C12.9351 57.112 29.1642 78.8853 29.1642 78.8853C29.1642 78.8853 45.3936 57.117 50.696 49.1682C56.0172 41.2288 58.3188 35.9704 58.3188 29.1629C58.3194 13.1008 45.2627 0.0771484 29.1642 0.0771484ZM29.1642 40.1598C23.0756 40.1598 18.14 35.2366 18.14 29.1634C18.14 23.099 23.0756 18.167 29.1642 18.167C35.2528 18.167 40.1884 23.0988 40.1884 29.1634C40.1884 35.2366 35.2528 40.1598 29.1642 40.1598Z" fill="#303C50"/>
</svg>
